<svg width="43" height="60" viewBox="0 0 43 60" fill="none" xmlns="http://www.w3.org/2000/svg">
<path d="M22.125 1L4.07272 48.2433C4.07272 48.2433 8.29773 47.283 14.2511 47.283C20.2046 47.283 23.6614 48.2433 23.6614 48.2433L22.125 1Z" fill="#132C77" stroke="#132C77"/>
<path d="M26.35 11.1784L17.1318 49.2035L41.1376 50.3558L26.35 11.1784Z" fill="#132C77" stroke="#132C77"/>
<path d="M1.76818 55.1591C1.76818 55.1591 1 55.5432 1 56.6955C1 57.8477 1.38409 58.2318 1.76818 58.0398C2.15227 57.8477 5.41705 52.8545 5.41705 52.8545L3.88069 57.6557L6.95342 53.0466C6.95342 53.0466 5.41705 58.2318 5.80114 58.4239C6.18524 58.6159 6.95342 57.6557 7.33751 57.6557C7.7216 57.6557 8.68183 59 9.45001 59C10.2182 59 12.3307 54.775 14.4432 54.775C16.5557 54.775 17.1318 58.4239 19.0523 58.4239C20.9728 58.4239 22.3171 55.1591 24.2375 55.1591C26.158 55.1591 26.9262 58.4239 28.8466 58.4239C30.7671 58.4239 31.7273 55.1591 34.0319 55.1591C36.3364 55.1591 37.8728 58.6181 39.6012 58.808C41.3296 58.9978 41.5217 58.6181 41.9058 57.8477C42.2898 57.0774 42.2898 56.6976 42.2898 56.3114C42.2898 55.9251 41.3296 55.3511 40.9455 54.967C40.5614 54.5829 40.598 53.7882 40.7535 53.2386C40.936 52.5931 42.0978 52.6625 42.0978 52.6625L42.866 52.8545" stroke="#132C77"/>
<circle cx="9.06593" cy="55.3489" r="0.768183" fill="#132C77"/>
<circle cx="19.0523" cy="55.3489" r="0.768183" fill="#132C77"/>
<circle cx="28.6546" cy="55.3489" r="0.768183" fill="#132C77"/>
<circle cx="39.0251" cy="55.3489" r="0.768183" fill="#132C77"/>
</svg>
