<svg width="111" height="153" viewBox="0 0 111 153" fill="none" xmlns="http://www.w3.org/2000/svg">
<path d="M56 1L9 124C9 124 20 121.5 35.5 121.5C51 121.5 60 124 60 124L56 1Z" fill="white" stroke="white"/>
<path d="M67 27.5L43 126.5L105.5 129.5L67 27.5Z" fill="white" stroke="white"/>
<path d="M3 142.006C3 142.006 1 143.006 1 146.006C1 149.006 2 150.006 3 149.506C4 149.006 12.5 136.006 12.5 136.006L8.5 148.506L16.5 136.506C16.5 136.506 12.5 150.006 13.5 150.506C14.5 151.006 16.5 148.506 17.5 148.506C18.5 148.506 21 152.006 23 152.006C25 152.006 30.5 141.006 36 141.006C41.5 141.006 43 150.506 48 150.506C53 150.506 56.5 142.006 61.5 142.006C66.5 142.006 68.5 150.506 73.5 150.506C78.5 150.506 81 142.006 87 142.006C93 142.006 97 151.011 101.5 151.506C106 152 106.5 151.011 107.5 149.006C108.5 147 108.5 146.011 108.5 145.006C108.5 144 106 142.506 105 141.506C104 140.506 104.095 138.437 104.5 137.006C104.975 135.325 108 135.506 108 135.506L110 136.006" stroke="white" stroke-width="2"/>
<circle cx="22" cy="142.5" r="2" fill="white"/>
<circle cx="48" cy="142.5" r="2" fill="white"/>
<circle cx="73" cy="142.5" r="2" fill="white"/>
<circle cx="100" cy="142.5" r="2" fill="white"/>
</svg>
